# This file uses centimeters as units for non-parametric coordinates.

mtllib name.mtl
g default
v -10.239238 0.060857 16.184418
v -9.507770 0.060857 16.184418
v -10.239238 8.326811 16.184418
v -9.507770 8.326811 16.184418
v -10.239238 8.326811 9.188124
v -9.507770 8.326811 9.188124
v -10.239238 0.060857 9.188124
v -9.507770 0.060857 9.188124
vt 0.570913 0.047619
vt 0.650977 0.047619
vt 0.650977 0.952381
vt 0.570913 0.952381
vt 0.570913 0.952381
vt 0.650977 0.952381
vt 0.650977 0.047619
vt 0.570913 0.047619
vt 0.058969 0.477733
vt 0.453955 0.477733
vt 0.453955 0.944400
vt 0.058969 0.944400
vt 0.453955 0.477733
vt 0.058969 0.477733
vt 0.058969 0.944400
vt 0.453955 0.944400
vt 0.819850 0.210506
vt 0.894529 0.210506
vt 0.894529 0.924792
vt 0.819850 0.924792
vt 0.819850 0.924792
vt 0.894529 0.924792
vt 0.894529 0.210506
vt 0.819850 0.210506
vn 0.000000 0.000000 1.000000
vn 0.000000 0.000000 1.000000
vn 0.000000 0.000000 1.000000
vn 0.000000 0.000000 1.000000
vn 0.000000 1.000000 0.000000
vn 0.000000 1.000000 0.000000
vn 0.000000 1.000000 0.000000
vn 0.000000 1.000000 0.000000
vn 0.000000 0.000000 -1.000000
vn 0.000000 0.000000 -1.000000
vn 0.000000 0.000000 -1.000000
vn 0.000000 0.000000 -1.000000
vn 0.000000 -1.000000 0.000000
vn 0.000000 -1.000000 0.000000
vn 0.000000 -1.000000 0.000000
vn 0.000000 -1.000000 0.000000
vn 1.000000 0.000000 0.000000
vn 1.000000 0.000000 0.000000
vn 1.000000 0.000000 0.000000
vn 1.000000 0.000000 0.000000
vn -1.000000 0.000000 0.000000
vn -1.000000 0.000000 0.000000
vn -1.000000 0.000000 0.000000
vn -1.000000 0.000000 0.000000
s off
g pCube5
usemtl initialShadingGroup
f 1/1/1 2/2/2 4/3/3 3/4/4
f 3/17/5 4/18/6 6/19/7 5/20/8
f 5/5/9 6/6/10 8/7/11 7/8/12
f 7/21/13 8/22/14 2/23/15 1/24/16
f 2/9/17 8/10/18 6/11/19 4/12/20
f 7/13/21 1/14/22 3/15/23 5/16/24
