# This file uses centimeters as units for non-parametric coordinates.

mtllib RightJdar.mtl
g default
v 10.523670 0.053835 -9.260965
v 10.523670 0.053835 -11.471859
v 10.523670 8.365709 -9.260957
v 10.523670 8.365709 -11.471869
v -5.416851 8.365709 -9.260957
v -5.416851 8.365709 -11.471869
v -5.416851 0.053835 -9.260965
v -5.416851 0.053835 -11.471859
v 6.039839 0.053835 -9.260965
v 6.039839 8.365709 -9.260957
v 6.039839 8.365709 -11.471869
v 6.039839 0.053835 -11.471859
v -1.037153 0.053835 -9.260965
v -1.037153 8.365709 -9.260957
v -1.037153 8.365709 -11.471869
v -1.037153 0.053835 -11.471859
v -1.213844 0.053835 -9.260965
v -1.213844 8.365709 -9.260957
v -1.213844 8.365709 -11.471869
v -1.213844 0.053835 -11.471859
v 6.245766 0.053835 -9.260965
v 6.245766 8.365709 -9.260957
v 6.245766 8.365709 -11.471869
v 6.245766 0.053835 -11.471859
v -5.415771 8.042561 -9.260958
v -1.212764 8.042561 -9.260958
v -1.036073 8.042561 -9.260958
v 6.040920 8.042561 -9.260958
v 6.246846 8.042561 -9.260958
v 10.524749 8.042561 -9.260958
v 10.524749 8.042561 -11.471869
v 6.246846 8.042561 -11.471869
v 6.040920 8.042561 -11.471869
v -1.036073 8.042561 -11.471869
v -1.212764 8.042561 -11.471869
v -5.415771 8.042561 -11.471869
v -5.416851 0.321528 -9.260965
v -1.213844 0.321528 -9.260965
v -1.037153 0.321528 -9.260965
v 6.039839 0.321528 -9.260965
v 6.245766 0.321528 -9.260965
v 10.523670 0.321528 -9.260965
v 10.523670 0.321528 -11.471859
v 6.245766 0.321528 -11.471859
v 6.039839 0.321528 -11.471859
v -1.037153 0.321528 -11.471859
v -1.213844 0.321528 -11.471859
v -5.416851 0.321528 -11.471859
v -1.037153 0.321528 -10.315815
v 6.039839 0.321528 -10.315815
v 6.040920 8.042561 -10.315815
v -1.036073 8.042561 -10.315815
vt 0.858961 0.949343
vt 0.962825 0.949343
vt 0.242836 0.442500
vt 0.242836 0.538928
vt 0.059524 0.538928
vt 0.059524 0.442500
vt 0.059524 0.442501
vt 0.059524 0.538928
vt 0.242836 0.538928
vt 0.242836 0.442501
vt 0.188554 0.955740
vt 0.020320 0.955740
vt 0.020276 0.968675
vt 0.188510 0.968675
vt 0.020320 0.955740
vt 0.568183 0.442500
vt 0.188554 0.955740
vt 0.568183 0.538928
vt 0.559202 0.538928
vt 0.188510 0.968675
vt 0.559202 0.442500
vt 0.020276 0.968675
vt 0.478897 0.955740
vt 0.559202 0.442501
vt 0.487140 0.955740
vt 0.559202 0.538928
vt 0.568183 0.538928
vt 0.487096 0.968675
vt 0.568183 0.442501
vt 0.478854 0.968675
vt 0.487140 0.955740
vt 0.250542 0.538928
vt 0.478897 0.955740
vt 0.250542 0.442500
vt 0.250542 0.442501
vt 0.478854 0.968675
vt 0.250542 0.538928
vt 0.487096 0.968675
vt 0.195626 0.955740
vt 0.754762 0.442500
vt 0.195583 0.968675
vt 0.754762 0.538928
vt 0.754762 0.538928
vt 0.195626 0.955740
vt 0.754762 0.442501
vt 0.195583 0.968675
vt 0.658372 0.955740
vt 0.962825 0.964524
vt 0.658328 0.968675
vt 0.721932 0.555682
vt 0.721931 0.956927
vt 0.658372 0.955740
vt 0.858961 0.964524
vt 0.858961 0.964524
vt 0.658328 0.968675
vt 0.020276 0.646690
vt 0.188510 0.646690
vt 0.195583 0.646690
vt 0.962825 0.964524
vt 0.478854 0.646690
vt 0.487096 0.646690
vt 0.962825 0.949343
vt 0.658328 0.646690
vt 0.776750 0.956927
vt 0.776750 0.555682
vt 0.658328 0.646690
vt 0.858961 0.949343
vt 0.858961 0.586623
vt 0.487096 0.646690
vt 0.478854 0.646690
vt 0.195583 0.646690
vt 0.188510 0.646690
vt 0.962825 0.586623
vt 0.020276 0.646690
vt 0.721931 0.956927
vt 0.721932 0.555682
vt 0.776750 0.555682
vt 0.776750 0.956927
vt 0.020276 0.635975
vt 0.188510 0.635975
vt 0.195583 0.635975
vt 0.478854 0.635975
vt 0.487096 0.635975
vt 0.658328 0.635975
vt 0.658328 0.635975
vt 0.487096 0.635975
vt 0.478854 0.635975
vt 0.195583 0.635975
vt 0.188510 0.635975
vt 0.020276 0.635975
vt 0.659834 0.038398
vt 0.982821 0.038398
vt 0.982870 0.390779
vt 0.659883 0.390779
vt 0.962825 0.586623
vt 0.858961 0.586623
vt 0.858961 0.574048
vt 0.962825 0.574048
vt 0.962825 0.574048
vt 0.858961 0.574048
vt 0.023256 0.297733
vt 0.619153 0.297733
vt 0.619153 0.386554
vt 0.023256 0.386554
vt 0.619244 0.297732
vt 0.023347 0.297732
vt 0.023347 0.386554
vt 0.619244 0.386554
vn 1.000000 0.000000 0.000000
vn 1.000000 0.000000 0.000000
vn 0.999994 0.003340 0.000000
vn 0.999994 0.003340 0.000000
vn 0.000000 1.000000 0.000000
vn 0.000000 1.000000 0.000000
vn 0.000000 1.000000 0.000000
vn 0.000000 1.000000 0.000000
vn -0.999994 -0.003340 0.000000
vn -0.999994 -0.003340 0.000000
vn -1.000000 -0.000000 0.000000
vn -1.000000 -0.000000 0.000000
vn 0.000000 -1.000000 0.000000
vn 0.000000 -1.000000 0.000000
vn 0.000000 -1.000000 0.000000
vn 0.000000 -1.000000 0.000000
vn 0.000000 -0.000001 -1.000000
vn 0.000000 -0.000001 -1.000000
vn 0.000000 -0.000000 -1.000000
vn 0.000000 -0.000000 -1.000000
vn 0.000000 -0.000001 1.000000
vn 0.000000 -0.000001 1.000000
vn 0.000000 -0.000003 1.000000
vn 0.000000 -0.000003 1.000000
vn 0.000000 -0.000002 1.000000
vn 0.000000 -0.000001 1.000000
vn 0.000000 -0.000003 1.000000
vn 0.000000 -0.000003 1.000000
vn 0.000000 1.000000 0.000000
vn 0.000000 1.000000 0.000000
vn 0.000000 1.000000 0.000000
vn 0.000000 1.000000 0.000000
vn 0.000000 -0.000001 -1.000000
vn 0.000000 -0.000001 -1.000000
vn 0.000000 0.000000 -1.000000
vn 0.000000 -0.000000 -1.000000
vn 0.000000 -1.000000 0.000000
vn 0.000000 -1.000000 0.000000
vn 0.000000 -1.000000 0.000000
vn 0.000000 -1.000000 0.000000
vn 0.000000 -0.000002 1.000000
vn 0.000000 -0.000003 1.000000
vn 0.000000 1.000000 0.000000
vn 0.000000 1.000000 0.000000
vn 0.000000 -0.000001 -1.000000
vn 0.000000 0.000000 -1.000000
vn 0.000000 -1.000000 0.000000
vn 0.000000 -1.000000 0.000000
vn 0.000000 -0.000001 1.000000
vn 0.000000 -0.000003 1.000000
vn 0.000000 1.000000 0.000000
vn 0.000000 1.000000 0.000000
vn 0.000000 -0.000001 -1.000000
vn 0.000000 -0.000000 -1.000000
vn 0.000000 -1.000000 0.000000
vn 0.000000 -1.000000 0.000000
vn 0.000000 -0.000001 1.000000
vn 0.000000 -0.000001 1.000000
vn 0.000000 -0.000000 1.000000
vn 0.000000 -0.000000 1.000000
vn 0.000000 -0.000000 1.000000
vn 0.000000 -0.000000 1.000000
vn 0.000000 -0.000000 1.000000
vn 0.000000 -0.000000 1.000000
vn 0.000000 -0.000001 1.000000
vn 0.000000 -0.000001 1.000000
vn 1.000000 -0.000135 0.000000
vn 1.000000 -0.000135 0.000000
vn 0.000000 -0.000001 -1.000000
vn 0.000000 -0.000001 -1.000000
vn 0.000000 -0.000001 -1.000000
vn 0.000000 -0.000001 -1.000000
vn 0.000000 -0.000001 -1.000000
vn 0.000000 -0.000001 -1.000000
vn -1.000000 0.000135 -0.000000
vn -1.000000 0.000135 -0.000000
vn 0.000000 0.000000 1.000000
vn 0.000000 0.000000 1.000000
vn 0.000000 0.000000 1.000000
vn 0.000000 0.000000 1.000000
vn 0.000000 0.000000 1.000000
vn 0.000000 0.000000 1.000000
vn 1.000000 0.000000 0.000000
vn 1.000000 0.000000 0.000000
vn 0.000000 0.000000 -1.000000
vn 0.000000 0.000000 -1.000000
vn 0.000000 0.000000 -1.000000
vn 0.000000 0.000000 -1.000000
vn 0.000000 0.000000 -1.000000
vn 0.000000 0.000000 -1.000000
vn -1.000000 0.000000 -0.000000
vn -1.000000 0.000000 -0.000000
vn 0.000000 1.000000 0.000000
vn 0.000000 1.000000 0.000000
vn 0.000000 1.000000 0.000000
vn 0.000000 1.000000 0.000000
vn -1.000000 0.000140 -0.000000
vn -1.000000 0.000140 -0.000000
vn -1.000000 0.000140 -0.000000
vn -1.000000 0.000140 -0.000000
vn 0.000000 -1.000000 0.000000
vn 0.000000 -1.000000 0.000000
vn 0.000000 -1.000000 0.000000
vn 0.000000 -1.000000 0.000000
vn 1.000000 -0.000140 0.000000
vn 1.000000 -0.000140 0.000000
vn 1.000000 -0.000140 0.000000
vn 1.000000 -0.000140 0.000000
s 1
g pCube3
usemtl initialShadingGroup
f 30/1/1 31/2/2 4/48/3 3/53/4
s 2
f 18/3/5 19/4/6 6/5/7 5/6/8
s 3
f 5/54/9 6/59/10 36/62/11 25/67/12
s 4
f 7/7/13 8/8/14 20/9/15 17/10/16
s 5
f 35/11/17 36/12/18 6/13/19 19/14/20
s 6
f 25/15/21 26/17/22 18/20/23 5/22/24
f 28/23/25 29/25/26 22/28/27 10/30/28
s 2
f 22/16/29 23/18/30 11/19/31 10/21/32
s 5
f 32/31/33 33/33/34 11/36/35 23/38/36
s 4
f 9/24/37 12/26/38 24/27/39 21/29/40
s 6
f 27/39/41 28/23/25 10/30/28 14/41/42
s 2
f 10/21/32 11/19/31 15/32/43 14/34/44
s 5
f 33/33/34 34/44/45 15/46/46 11/36/35
s 4
f 13/35/47 16/37/48 12/26/38 9/24/37
s 6
f 26/17/22 27/39/41 14/41/42 18/20/23
s 2
f 14/34/44 15/32/43 19/4/6 18/3/5
s 5
f 34/44/45 35/11/17 19/14/20 15/46/46
s 4
f 17/10/16 20/9/15 16/37/48 13/35/47
s 6
f 29/25/26 30/47/49 3/49/50 22/28/27
s 2
f 3/40/51 4/42/52 23/18/30 22/16/29
s 5
f 31/52/53 32/31/33 23/38/36 4/55/54
s 4
f 21/29/40 24/27/39 2/43/55 1/45/56
s 6
f 37/56/57 38/57/58 26/17/22 25/15/21
f 38/57/58 39/58/59 27/39/41 26/17/22
s off
f 49/91/60 50/92/61 51/93/62 52/94/63
s 6
f 40/60/64 41/61/65 29/25/26 28/23/25
f 41/61/65 42/63/66 30/47/49 29/25/26
s 1
f 42/68/67 43/73/68 31/2/2 30/1/1
s 5
f 43/66/69 44/69/70 32/31/33 31/52/53
f 44/69/70 45/70/71 33/33/34 32/31/33
f 45/70/71 46/71/72 34/44/45 33/33/34
f 46/71/72 47/72/73 35/11/17 34/44/45
f 47/72/73 48/74/74 36/12/18 35/11/17
s 3
f 25/67/12 36/62/11 48/95/75 37/96/76
s 6
f 7/79/77 17/80/78 38/57/58 37/56/57
f 17/80/78 13/81/79 39/58/59 38/57/58
f 13/81/79 9/82/80 40/60/64 39/58/59
f 9/82/80 21/83/81 41/61/65 40/60/64
f 21/83/81 1/84/82 42/63/66 41/61/65
s 1
f 1/97/83 2/98/84 43/73/68 42/68/67
s 5
f 2/85/85 24/86/86 44/69/70 43/66/69
f 24/86/86 12/87/87 45/70/71 44/69/70
f 12/87/87 16/88/88 46/71/72 45/70/71
f 16/88/88 20/89/89 47/72/73 46/71/72
f 20/89/89 8/90/90 48/74/74 47/72/73
s 3
f 37/96/76 48/95/75 8/99/91 7/100/92
s off
f 39/101/93 40/102/94 50/103/95 49/104/96
f 40/50/97 28/51/98 51/64/99 50/65/100
f 28/105/101 27/106/102 52/107/103 51/108/104
f 27/75/105 39/76/106 49/77/107 52/78/108
