# This file uses centimeters as units for non-parametric coordinates.

mtllib leftjdar.mtl
g default
v -7.605397 0.055533 16.162314
v -7.605397 0.055533 18.373213
v -7.605397 8.367407 16.162313
v -7.605397 8.367407 18.373217
v 11.338521 8.365709 16.162313
v 11.338521 8.365709 18.373217
v 11.338521 0.053835 16.162314
v 11.338521 0.053835 18.373213
v -0.118166 0.053835 16.162314
v -0.118166 8.365709 16.162313
v -0.118166 8.365709 18.373217
v -0.118166 0.053835 18.373213
v 6.958829 0.053835 16.162314
v 6.958829 8.365709 16.162313
v 6.958829 8.365709 18.373217
v 6.958829 0.053835 18.373213
v 7.135515 0.053835 16.162314
v 7.135515 8.365709 16.162313
v 7.135515 8.365709 18.373217
v 7.135515 0.053835 18.373213
v -0.324092 0.053835 16.162314
v -0.324092 8.365709 16.162313
v -0.324092 8.365709 18.373217
v -0.324092 0.053835 18.373213
v 11.337441 8.042561 16.162313
v 7.134439 8.042561 16.162313
v 6.957744 8.042561 16.162313
v -0.119246 8.042561 16.162313
v -0.325173 8.042561 16.162313
v -7.606477 8.044258 16.162313
v -7.606477 8.044258 18.373215
v -0.325173 8.042561 18.373215
v -0.119246 8.042561 18.373215
v 6.957744 8.042561 18.373215
v 7.134439 8.042561 18.373215
v 11.337441 8.042561 18.373215
v 11.338521 0.321528 16.162314
v 7.135515 0.321528 16.162314
v 6.958829 0.321528 16.162314
v -0.118166 0.321528 16.162314
v -0.324092 0.321528 16.162314
v -7.605397 0.323226 16.162314
v -7.605397 0.323226 18.373213
v -0.324092 0.321528 18.373213
v -0.118166 0.321528 18.373213
v 6.958829 0.321528 18.373213
v 7.135515 0.321528 18.373213
v 11.338521 0.321528 18.373213
v 6.958829 0.321528 17.217170
v -0.118166 0.321528 17.217170
v -0.119246 8.042561 17.217166
v 6.957744 8.042561 17.217166
v -2.447448 0.054330 16.162314
v -2.447448 0.322021 16.162314
v -2.448528 8.043058 16.162313
v -2.447448 8.366204 16.162313
v -2.447448 8.366204 18.373217
v -2.448528 8.043058 18.373215
v -2.447448 0.322021 18.373213
v -2.447448 0.054330 18.373213
v -7.370225 0.055478 16.162314
v -7.370225 0.323169 16.162314
v -7.371305 8.044206 16.162313
v -7.370225 8.367352 16.162313
v -7.370225 8.367352 18.373217
v -7.371305 8.044206 18.373215
v -7.370225 0.323169 18.373213
v -7.370225 0.055478 18.373213
v -2.646279 0.054376 16.162314
v -2.646279 0.322070 16.162314
v -2.647356 8.043102 16.162313
v -2.646279 8.366251 16.162313
v -2.646279 8.366251 18.373217
v -2.647356 8.043102 18.373215
v -2.646279 0.322070 18.373213
v -2.646279 0.054376 18.373213
vt 0.942252 0.607503
vt 0.625000 0.000000
vt 0.792820 0.607503
vt 0.792820 0.629344
vt 0.942252 0.629344
vt 0.942252 0.629229
vt 0.792820 0.629229
vt 0.792820 0.607388
vt 0.531165 0.395927
vt 0.531165 0.319233
vt 0.510651 0.952142
vt 0.643763 0.952142
vt 0.643797 0.962377
vt 0.510685 0.962377
vt 0.643763 0.952142
vt 0.676963 0.319233
vt 0.510651 0.952142
vt 0.676963 0.395927
vt 0.676963 0.395927
vt 0.510685 0.962377
vt 0.676963 0.319233
vt 0.695321 0.000000
vt 0.643797 0.962377
vt 0.531165 0.319233
vt 0.280922 0.952142
vt 0.531165 0.395927
vt 0.272400 0.395927
vt 0.274401 0.952142
vt 0.272400 0.319233
vt 0.274435 0.962377
vt 0.280957 0.962377
vt 0.279543 0.319233
vt 0.274401 0.952142
vt 0.279543 0.395927
vt 0.279543 0.395927
vt 0.280922 0.952142
vt 0.279543 0.319233
vt 0.280957 0.962377
vt 0.274435 0.962377
vt 0.272400 0.319233
vt 0.505055 0.952142
vt 0.272400 0.395927
vt 0.525036 0.319233
vt 0.505089 0.962377
vt 0.525036 0.395927
vt 0.692092 0.000000
vt 0.505055 0.952142
vt 0.942252 0.607388
vt 0.505089 0.962377
vt 0.708344 0.218522
vt 0.051204 0.220664
vt 0.207153 0.952158
vt 0.942252 0.085647
vt 0.792820 0.085647
vt 0.207187 0.962392
vt 0.207153 0.952158
vt 0.207187 0.962392
vt 0.643797 0.707612
vt 0.792820 0.085532
vt 0.510685 0.707612
vt 0.505089 0.707612
vt 0.942252 0.085532
vt 0.280957 0.707612
vt 0.050911 0.130885
vt 0.708051 0.128743
vt 0.274435 0.707612
vt 0.942252 0.067554
vt 0.625000 0.003916
vt 0.692092 0.003916
vt 0.695321 0.003916
vt 0.207187 0.707628
vt 0.207187 0.707628
vt 0.792820 0.067554
vt 0.274435 0.707612
vt 0.051204 0.220664
vt 0.708344 0.218522
vt 0.708051 0.128743
vt 0.050911 0.130885
vt 0.280957 0.707612
vt 0.525036 0.395927
vt 0.505089 0.707612
vt 0.510685 0.707612
vt 0.643797 0.707612
vt 0.525036 0.319233
vt 0.198743 0.395927
vt 0.643797 0.699134
vt 0.510685 0.699134
vt 0.505089 0.699134
vt 0.198743 0.319233
vt 0.280957 0.699134
vt 0.274435 0.699134
vt 0.198743 0.319233
vt 0.207187 0.699150
vt 0.207187 0.699150
vt 0.274435 0.699134
vt 0.198743 0.395927
vt 0.191846 0.395927
vt 0.280957 0.699134
vt 0.505089 0.699134
vt 0.627167 0.003916
vt 0.191846 0.319233
vt 0.627167 0.000000
vt 0.510685 0.699134
vt 0.191846 0.319233
vt 0.643797 0.699134
vt 0.200890 0.699152
vt 0.200890 0.707629
vt 0.191846 0.395927
vt 0.019820 0.395927
vt 0.200856 0.952159
vt 0.200890 0.962394
vt 0.200856 0.952159
vt 0.019820 0.319233
vt 0.200890 0.962394
vt 0.200890 0.707629
vt 0.200890 0.699152
vt 0.051279 0.699186
vt 0.043831 0.699188
vt 0.043831 0.707666
vt 0.051279 0.707664
vt 0.051245 0.952194
vt 0.043797 0.952196
vt 0.051279 0.962429
vt 0.043831 0.962430
vt 0.043797 0.952196
vt 0.051245 0.952194
vt 0.051279 0.962429
vt 0.043831 0.962430
vt 0.043831 0.707666
vt 0.051279 0.707664
vt 0.051279 0.699186
vt 0.969061 0.689966
vt 0.710920 0.689966
vt 0.710881 0.971599
vt 0.969021 0.971599
vt 0.027978 0.319233
vt 0.027978 0.395927
vt 0.027978 0.395927
vt 0.027978 0.319233
vt 0.019820 0.319233
vt 0.019820 0.395927
vt 0.792820 0.067439
vt 0.942252 0.067439
vt 0.694669 0.578288
vt 0.075716 0.578288
vt 0.075716 0.486031
vt 0.694669 0.486031
vt 0.075621 0.578288
vt 0.694574 0.578288
vt 0.694574 0.486031
vt 0.075621 0.486031
vn -1.000000 0.000000 0.000000
vn -1.000000 0.000000 0.000000
vn -0.999994 0.003340 0.000000
vn -0.999994 0.003340 0.000000
vn 0.000000 1.000000 0.000000
vn 0.000000 1.000000 0.000000
vn 0.000000 1.000000 0.000000
vn 0.000000 1.000000 0.000000
vn 0.999994 -0.003343 0.000000
vn 0.999994 -0.003343 0.000000
vn 1.000000 -0.000000 0.000000
vn 1.000000 -0.000000 0.000000
vn 0.000000 -1.000000 0.000000
vn 0.000000 -1.000000 0.000000
vn 0.000000 -1.000000 0.000000
vn 0.000000 -1.000000 0.000000
vn 0.000000 -0.000001 1.000000
vn 0.000000 -0.000001 1.000000
vn 0.000000 -0.000006 1.000000
vn 0.000000 -0.000006 1.000000
vn 0.000000 -0.000000 -1.000000
vn 0.000000 -0.000000 -1.000000
vn 0.000000 -0.000000 -1.000000
vn 0.000000 -0.000000 -1.000000
vn 0.000000 -0.000000 -1.000000
vn -0.000000 -0.000000 -1.000000
vn 0.000000 -0.000000 -1.000000
vn 0.000000 -0.000000 -1.000000
vn 0.000212 1.000000 0.000000
vn 0.000212 1.000000 0.000000
vn 0.000000 1.000000 0.000000
vn 0.000000 1.000000 0.000000
vn -0.000000 -0.000001 1.000000
vn 0.000000 -0.000001 1.000000
vn 0.000000 -0.000006 1.000000
vn -0.000000 -0.000007 1.000000
vn 0.000000 -1.000000 0.000000
vn 0.000000 -1.000000 0.000000
vn -0.000213 -1.000000 0.000000
vn -0.000213 -1.000000 0.000000
vn 0.000000 -0.000000 -1.000000
vn 0.000000 -0.000000 -1.000000
vn 0.000000 1.000000 0.000000
vn 0.000000 1.000000 0.000000
vn 0.000000 -0.000001 1.000000
vn 0.000000 -0.000006 1.000000
vn 0.000000 -1.000000 0.000000
vn 0.000000 -1.000000 0.000000
vn -0.000000 -0.000000 -1.000000
vn 0.000000 -0.000000 -1.000000
vn 0.000233 1.000000 0.000000
vn 0.000233 1.000000 0.000000
vn -0.000000 -0.000001 1.000000
vn -0.000000 -0.000007 1.000000
vn -0.000233 -1.000000 0.000000
vn -0.000233 -1.000000 0.000000
vn 0.000000 -0.000000 -1.000000
vn 0.000000 -0.000000 -1.000000
vn 0.000000 -0.000000 -1.000000
vn 0.000000 -0.000001 -1.000000
vn 0.000000 -0.000001 -1.000000
vn 0.000000 -0.000001 -1.000000
vn 0.000000 -0.000001 -1.000000
vn 0.000000 -0.000000 -1.000000
vn -0.000000 -0.000000 -1.000000
vn -0.000000 -0.000000 -1.000000
vn -1.000000 -0.000135 0.000000
vn -1.000000 -0.000135 0.000000
vn -0.000000 -0.000000 1.000000
vn -0.000000 -0.000000 1.000000
vn 0.000000 -0.000000 1.000000
vn 0.000000 -0.000000 1.000000
vn 0.000000 -0.000000 1.000000
vn 0.000000 -0.000000 1.000000
vn 1.000000 0.000135 0.000000
vn 1.000000 0.000135 0.000000
vn -0.000000 0.000000 -1.000000
vn -0.000000 0.000000 -1.000000
vn -0.000000 0.000000 -1.000000
vn -0.000000 0.000000 -1.000000
vn -0.000000 0.000000 -1.000000
vn -0.000000 0.000000 -1.000000
vn -1.000000 0.000000 0.000000
vn -1.000000 0.000000 0.000000
vn 0.000000 0.000000 1.000000
vn 0.000000 0.000000 1.000000
vn 0.000000 0.000000 1.000000
vn 0.000000 0.000000 1.000000
vn 0.000000 0.000000 1.000000
vn 0.000000 0.000000 1.000000
vn 1.000000 0.000000 0.000000
vn 1.000000 0.000000 0.000000
vn 0.000000 1.000000 0.000000
vn 0.000000 1.000000 0.000000
vn 0.000000 1.000000 0.000000
vn 0.000000 1.000000 0.000000
vn 1.000000 0.000140 0.000000
vn 1.000000 0.000140 0.000000
vn 1.000000 0.000140 0.000000
vn 1.000000 0.000140 0.000000
vn 0.000000 -1.000000 0.000000
vn 0.000000 -1.000000 0.000000
vn 0.000000 -1.000000 0.000000
vn 0.000000 -1.000000 0.000000
vn -1.000000 -0.000141 0.000000
vn -1.000000 -0.000141 0.000000
vn -1.000000 -0.000141 0.000000
vn -1.000000 -0.000141 0.000000
vn -0.000000 0.000000 -1.000000
vn -0.000000 -0.000000 -1.000000
vn -0.000000 -0.000000 -1.000000
vn -0.000000 0.000000 -1.000000
vn 0.000233 1.000000 0.000000
vn 0.000233 1.000000 0.000000
vn -0.000000 -0.000001 1.000000
vn -0.000000 -0.000006 1.000000
vn -0.000000 -0.000000 1.000000
vn 0.000000 0.000000 1.000000
vn -0.000233 -1.000000 0.000000
vn -0.000233 -1.000000 0.000000
vn -0.000000 0.000000 -1.000000
vn -0.000000 0.000000 -1.000000
vn -0.000000 -0.000000 -1.000000
vn -0.000000 -0.000000 -1.000000
vn -0.000000 -0.000000 -1.000000
vn -0.000000 -0.000000 -1.000000
vn -0.000000 0.000000 -1.000000
vn -0.000000 0.000000 -1.000000
vn 0.000234 1.000000 0.000000
vn 0.000234 1.000000 0.000000
vn 0.000233 1.000000 0.000000
vn 0.000233 1.000000 0.000000
vn -0.000000 -0.000001 1.000000
vn -0.000000 -0.000001 1.000000
vn -0.000000 -0.000006 1.000000
vn -0.000000 -0.000006 1.000000
vn -0.000000 -0.000000 1.000000
vn -0.000000 -0.000000 1.000000
vn 0.000000 0.000000 1.000000
vn 0.000000 0.000000 1.000000
vn -0.000233 -1.000000 0.000000
vn -0.000233 -1.000000 0.000000
vn -0.000231 -1.000000 0.000000
vn -0.000231 -1.000000 0.000000
s 1
g pCube4
usemtl initialShadingGroup
f 30/1/1 31/3/2 4/4/3 3/5/4
s 2
f 18/9/5 19/10/6 6/16/7 5/18/8
s 3
f 5/6/9 6/7/10 36/8/11 25/48/12
s 4
f 7/19/13 8/21/14 20/24/15 17/26/16
s 5
f 35/11/17 36/12/18 6/13/19 19/14/20
s 6
f 25/15/21 26/17/22 18/20/23 5/23/24
f 28/25/25 29/28/26 22/30/27 10/31/28
s 2
f 22/27/29 23/29/30 11/32/31 10/34/32
s 5
f 32/33/33 33/36/34 11/38/35 23/39/36
s 4
f 9/35/37 12/37/38 24/40/39 21/42/40
s 6
f 27/41/41 28/25/25 10/31/28 14/44/42
s 2
f 10/34/32 11/32/31 15/43/43 14/45/44
s 5
f 33/36/34 34/47/45 15/49/46 11/38/35
s 4
f 13/80/47 16/84/48 12/37/38 9/35/37
s 6
f 26/17/22 27/41/41 14/44/42 18/20/23
s 2
f 14/45/44 15/43/43 19/10/6 18/9/5
s 5
f 34/47/45 35/11/17 19/14/20 15/49/46
s 4
f 17/26/16 20/24/15 16/84/48 13/80/47
s 6
f 29/28/26 55/52/49 56/55/50 22/30/27
s 2
f 56/85/51 57/89/52 23/29/30 22/27/29
s 5
f 58/56/53 32/33/33 23/39/36 57/57/54
s 4
f 21/42/40 24/40/39 60/92/55 53/96/56
s 6
f 37/58/57 38/60/58 26/17/22 25/15/21
f 38/60/58 39/61/59 27/41/41 26/17/22
s off
f 49/132/60 50/133/61 51/134/62 52/135/63
s 6
f 40/63/64 41/66/65 29/28/26 28/25/25
f 41/66/65 54/71/66 55/52/49 29/28/26
s 1
f 42/53/67 43/54/68 31/3/2 30/1/1
s 5
f 59/72/69 44/74/70 32/33/33 58/56/53
f 44/74/70 45/79/71 33/36/34 32/33/33
f 45/79/71 46/81/72 34/47/45 33/36/34
f 46/81/72 47/82/73 35/11/17 34/47/45
f 47/82/73 48/83/74 36/12/18 35/11/17
s 3
f 25/48/12 36/8/11 48/59/75 37/62/76
s 6
f 7/86/77 17/87/78 38/60/58 37/58/57
f 17/87/78 13/88/79 39/61/59 38/60/58
f 13/88/79 9/90/80 40/63/64 39/61/59
f 9/90/80 21/91/81 41/66/65 40/63/64
f 21/91/81 53/93/82 54/71/66 41/66/65
s 1
f 1/67/83 2/73/84 43/54/68 42/53/67
s 5
f 60/94/85 24/95/86 44/74/70 59/72/69
f 24/46/86 12/22/87 45/70/71 44/69/70
f 12/98/87 16/99/88 46/81/72 45/79/71
f 16/99/88 20/103/89 47/82/73 46/81/72
f 20/103/89 8/105/90 48/83/74 47/82/73
s 3
f 37/62/76 48/59/75 8/142/91 7/143/92
s off
f 39/144/93 40/145/94 50/146/95 49/147/96
f 40/50/97 28/51/98 51/64/99 50/65/100
f 28/148/101 27/149/102 52/150/103 51/151/104
f 27/75/105 39/76/106 49/77/107 52/78/108
s 6
f 53/93/82 69/106/109 70/107/110 54/71/66
f 55/52/49 54/71/66 70/107/110 71/110/111
f 56/55/50 55/52/49 71/110/111 72/111/112
s 2
f 72/97/113 73/101/114 57/89/52 56/85/51
s 5
f 74/112/115 58/56/53 57/57/54 73/114/116
f 75/115/117 59/72/69 58/56/53 74/112/115
f 76/116/118 60/94/85 59/72/69 75/115/117
s 4
f 53/96/56 60/92/55 76/104/119 69/108/120
s 6
f 61/117/121 1/118/122 42/119/123 62/120/124
f 63/121/125 62/120/124 42/119/123 30/122/126
f 64/123/127 63/121/125 30/122/126 3/124/128
s 2
f 3/109/129 4/113/130 65/136/131 64/137/132
s 5
f 31/125/133 66/126/134 65/127/135 4/128/136
f 43/129/137 67/130/138 66/126/134 31/125/133
f 2/2/139 68/102/140 67/100/138 43/68/137
s 4
f 61/138/141 68/139/142 2/140/143 1/141/144
s 6
f 69/106/109 61/117/121 62/120/124 70/107/110
f 71/110/111 70/107/110 62/120/124 63/121/125
f 72/111/112 71/110/111 63/121/125 64/123/127
s 2
f 64/137/132 65/136/131 73/101/114 72/97/113
s 5
f 66/126/134 74/112/115 73/114/116 65/127/135
f 67/130/138 75/115/117 74/112/115 66/126/134
f 68/131/140 76/116/118 75/115/117 67/130/138
s 4
f 69/108/120 76/104/119 68/139/142 61/138/141
