# This file uses centimeters as units for non-parametric coordinates.

mtllib forShop.mtl
g default
v -4.828362 0.065640 14.741063
v -2.866869 0.065640 14.741063
v -4.828362 3.923705 14.741063
v -2.866869 3.923705 14.741063
v -4.828362 3.923705 8.284809
v -2.866869 3.923705 8.284809
v -4.828362 0.065640 8.284809
v -2.866869 0.065640 8.284809
v -2.866869 0.065640 8.664797
v -4.828362 0.065640 8.664797
v -4.828362 3.923705 8.664797
v -2.866869 3.923705 8.664797
v -2.866869 0.065640 14.121671
v -4.828362 0.065640 14.121671
v -4.828362 3.923705 14.121671
v -2.866869 3.923705 14.121671
v -2.866869 3.287990 8.284809
v -4.828362 3.287990 8.284809
v -4.828362 3.287990 8.664797
v -4.828362 3.287990 14.121671
v -4.828362 3.287990 14.741063
v -2.866869 3.287990 14.741063
v -2.866869 3.287990 14.121671
v -2.866869 3.287990 8.664797
v -2.866869 0.618001 8.284809
v -4.828362 0.618001 8.284809
v -4.828362 0.618001 8.664797
v -4.828362 0.618001 14.121671
v -4.828362 0.618001 14.741063
v -2.866869 0.618001 14.741063
v -2.866869 0.618001 14.121671
v -2.866869 0.618001 8.664797
v -3.323233 3.287990 14.121671
v -3.323233 3.287990 8.664797
v -3.323233 0.618001 14.121671
v -3.323233 0.618001 8.664797
vt 0.628611 0.374802
vt 0.836818 0.374802
vt 0.836818 0.442282
vt 0.628611 0.442282
vt 0.628611 0.442282
vt 0.836818 0.442282
vt 0.836818 0.374802
vt 0.628611 0.374802
vt 0.780700 0.925336
vt 0.928267 0.925336
vt 0.527842 0.656227
vt 0.527842 0.606526
vt 0.557550 0.606526
vt 0.557550 0.656227
vt 0.928267 0.953924
vt 0.557550 0.606526
vt 0.527842 0.606526
vt 0.780700 0.953924
vt 0.527842 0.656227
vt 0.780700 0.953924
vt 0.928267 0.953924
vt 0.557550 0.656227
vt 0.928267 0.925336
vt 0.101213 0.606526
vt 0.101213 0.656227
vt 0.780700 0.925336
vt 0.101213 0.656227
vt 0.928267 0.514807
vt 0.780700 0.514807
vt 0.101213 0.606526
vt 0.836818 0.091390
vt 0.052788 0.606526
vt 0.052788 0.656227
vt 0.628611 0.091390
vt 0.052788 0.606526
vt 0.052788 0.656227
vt 0.628611 0.091390
vt 0.836818 0.091390
vt 0.836818 0.032758
vt 0.628611 0.032758
vt 0.628611 0.032758
vt 0.557550 0.397781
vt 0.527842 0.397781
vt 0.836818 0.032758
vt 0.101213 0.397781
vt 0.052788 0.397781
vt 0.836818 0.374802
vt 0.836818 0.091390
vt 0.788376 0.091390
vt 0.788376 0.374802
vt 0.836818 0.091390
vt 0.836818 0.374802
vt 0.788376 0.374802
vt 0.788376 0.091390
vt 0.520861 0.912578
vt 0.073242 0.912578
vt 0.073242 0.693562
vt 0.520861 0.693562
vt 0.052788 0.397781
vt 0.101213 0.397781
vt 0.527842 0.397781
vt 0.557550 0.397781
vt 0.557550 0.354597
vt 0.527842 0.354597
vt 0.101213 0.354597
vt 0.052788 0.354597
vt 0.052788 0.354597
vt 0.101213 0.354597
vt 0.527842 0.354597
vt 0.557550 0.354597
vt 0.780700 0.514807
vt 0.928267 0.514807
vt 0.928267 0.468209
vt 0.780700 0.468209
vt 0.780700 0.468209
vt 0.928267 0.468209
vt 0.928267 0.925336
vt 0.928267 0.514807
vt 0.893934 0.514807
vt 0.893934 0.925336
vt 0.928267 0.514807
vt 0.928267 0.925336
vt 0.893934 0.925336
vt 0.893934 0.514807
vn 0.000000 0.000000 1.000000
vn 0.000000 0.000000 1.000000
vn 0.000000 0.000000 1.000000
vn 0.000000 0.000000 1.000000
vn 0.000000 1.000000 0.000000
vn 0.000000 1.000000 0.000000
vn 0.000000 1.000000 0.000000
vn 0.000000 1.000000 0.000000
vn 0.000000 0.000000 -1.000000
vn 0.000000 0.000000 -1.000000
vn 0.000000 0.000000 -1.000000
vn 0.000000 0.000000 -1.000000
vn 0.000000 -1.000000 0.000000
vn 0.000000 -1.000000 0.000000
vn 0.000000 -1.000000 0.000000
vn 0.000000 -1.000000 0.000000
vn 1.000000 0.000000 0.000000
vn 1.000000 0.000000 0.000000
vn 1.000000 0.000000 0.000000
vn 1.000000 0.000000 0.000000
vn -1.000000 0.000000 0.000000
vn -1.000000 0.000000 0.000000
vn -1.000000 0.000000 0.000000
vn -1.000000 0.000000 0.000000
vn 0.000000 -1.000000 0.000000
vn 0.000000 -1.000000 0.000000
vn -1.000000 0.000000 0.000000
vn -1.000000 0.000000 0.000000
vn 0.000000 1.000000 0.000000
vn 0.000000 1.000000 0.000000
vn 1.000000 0.000000 0.000000
vn 1.000000 0.000000 0.000000
vn 0.000000 -1.000000 0.000000
vn 0.000000 -1.000000 0.000000
vn -1.000000 0.000000 0.000000
vn -1.000000 0.000000 0.000000
vn 0.000000 1.000000 0.000000
vn 0.000000 1.000000 0.000000
vn 1.000000 0.000000 0.000000
vn 1.000000 0.000000 0.000000
vn 0.000000 0.000000 -1.000000
vn 0.000000 0.000000 -1.000000
vn -1.000000 0.000000 0.000000
vn -1.000000 0.000000 0.000000
vn -1.000000 0.000000 0.000000
vn -1.000000 0.000000 0.000000
vn 0.000000 0.000000 1.000000
vn 0.000000 0.000000 1.000000
vn 1.000000 0.000000 0.000000
vn 1.000000 0.000000 0.000000
vn 1.000000 0.000000 0.000000
vn 1.000000 0.000000 0.000000
vn 1.000000 0.000000 0.000000
vn 1.000000 0.000000 0.000000
vn 1.000000 0.000000 0.000000
vn 1.000000 0.000000 0.000000
vn 0.000000 0.000000 -1.000000
vn 0.000000 0.000000 -1.000000
vn -1.000000 0.000000 0.000000
vn -1.000000 0.000000 0.000000
vn -1.000000 0.000000 0.000000
vn -1.000000 0.000000 0.000000
vn 0.000000 0.000000 1.000000
vn 0.000000 0.000000 1.000000
vn 1.000000 0.000000 0.000000
vn 1.000000 0.000000 0.000000
vn 1.000000 0.000000 0.000000
vn 1.000000 0.000000 0.000000
vn 0.000000 -1.000000 0.000000
vn 0.000000 -1.000000 0.000000
vn 0.000000 -1.000000 0.000000
vn 0.000000 -1.000000 0.000000
vn 0.000000 0.000000 -1.000000
vn 0.000000 0.000000 -1.000000
vn 0.000000 0.000000 -1.000000
vn 0.000000 0.000000 -1.000000
vn 0.000000 1.000000 0.000000
vn 0.000000 1.000000 0.000000
vn 0.000000 1.000000 0.000000
vn 0.000000 1.000000 0.000000
vn 0.000000 0.000000 1.000000
vn 0.000000 0.000000 1.000000
vn 0.000000 0.000000 1.000000
vn 0.000000 0.000000 1.000000
s 1
g pCube6
usemtl initialShadingGroup
f 21/1/1 22/2/2 4/3/3 3/4/4
s 2
f 11/9/5 12/10/6 6/15/7 5/18/8
s 3
f 5/5/9 6/6/10 17/7/11 18/8/12
s 4
f 7/20/13 8/21/14 9/23/15 10/26/16
s 5
f 12/11/17 24/12/18 17/13/19 6/14/20
s 6
f 18/16/21 19/17/22 11/19/23 5/22/24
s 4
f 10/26/16 9/23/15 13/28/25 14/29/26
s 6
f 11/19/23 19/17/22 20/24/27 15/25/28
s 2
f 15/71/29 16/72/30 12/10/6 11/9/5
s 5
f 16/27/31 23/30/32 24/12/18 12/11/17
s 4
f 14/29/26 13/28/25 2/73/33 1/74/34
s 6
f 15/25/28 20/24/27 21/32/35 3/33/36
s 2
f 3/75/37 4/76/38 16/72/30 15/71/29
s 5
f 22/35/39 23/30/32 16/27/31 4/36/40
s 3
f 18/8/12 17/7/11 25/31/41 26/34/42
s 6
f 26/42/43 27/43/44 19/17/22 18/16/21
f 20/24/27 19/17/22 27/43/44 28/45/45
f 21/32/35 20/24/27 28/45/45 29/46/46
s 1
f 29/37/47 30/38/48 22/2/2 21/1/1
s 5
f 30/59/49 31/60/50 23/30/32 22/35/39
s off
f 34/55/51 33/56/52 35/57/53 36/58/54
s 5
f 17/13/19 24/12/18 32/61/55 25/62/56
s 3
f 26/34/42 25/31/41 8/39/57 7/40/58
s 6
f 7/63/59 10/64/60 27/43/44 26/42/43
f 28/45/45 27/43/44 10/64/60 14/65/61
f 29/46/46 28/45/45 14/65/61 1/66/62
s 1
f 1/41/63 2/44/64 30/38/48 29/37/47
s 5
f 2/67/65 13/68/66 31/60/50 30/59/49
f 32/61/55 31/60/50 13/68/66 9/69/67
f 25/62/56 32/61/55 9/69/67 8/70/68
s off
f 24/77/69 23/78/70 33/79/71 34/80/72
f 23/47/73 31/48/74 35/49/75 33/50/76
f 31/81/77 32/82/78 36/83/79 35/84/80
f 32/51/81 24/52/82 34/53/83 36/54/84
