# This file uses centimeters as units for non-parametric coordinates.

mtllib jdarFront.mtl
g default
v -12.540192 0.029262 7.081103
v -9.557624 0.029262 7.081103
v -12.540192 8.368231 7.081103
v -9.557624 8.368231 7.081103
v -12.540192 8.368231 -11.491578
v -9.557624 8.368231 -11.491578
v -12.540192 0.029262 -11.491578
v -9.557624 0.029262 -11.491578
v -9.557624 0.029262 -6.232171
v -12.540192 0.029262 -6.232171
v -12.540192 8.368231 -6.232171
v -9.557624 8.368231 -6.232171
v -9.557624 0.029262 2.204157
v -12.540192 0.029262 2.204157
v -12.540192 8.368231 2.204157
v -9.557624 8.368231 2.204157
v -9.557624 0.029262 -0.053180
v -12.540192 0.029262 -0.053180
v -12.540192 8.368231 -0.053180
v -9.557624 8.368231 -0.053180
v -9.557624 0.029262 -3.879050
v -12.540192 0.029262 -3.879050
v -12.540192 8.368231 -3.879049
v -9.557624 8.368231 -3.879049
v -9.557624 0.029262 6.946493
v -12.540192 0.029262 6.946493
v -12.540192 8.368231 6.946493
v -9.557624 8.368231 6.946493
v -9.557624 0.029262 -11.321585
v -12.540192 0.029262 -11.321585
v -12.540192 8.368231 -11.321585
v -9.557624 8.368231 -11.321585
v -9.557624 0.029262 -6.384971
v -12.540192 0.029262 -6.384971
v -12.540192 8.368231 -6.384971
v -9.557624 8.368231 -6.384971
v -9.557624 0.029262 2.329179
v -12.540192 0.029262 2.329179
v -12.540192 8.368231 2.329179
v -9.557624 8.368231 2.329179
v -9.557624 0.029262 0.037877
v -12.540192 0.029262 0.037877
v -12.540192 8.368231 0.037878
v -9.557624 8.368231 0.037878
v -9.557624 0.029262 -3.786768
v -12.540192 0.029262 -3.786768
v -12.540192 8.368231 -3.786768
v -9.557624 8.368231 -3.786768
v -9.557624 8.041062 -11.491578
v -12.540192 8.041062 -11.491578
v -12.540192 8.041062 -11.321585
v -12.540192 8.041062 -6.384971
v -12.540192 8.041062 -6.232171
v -12.540192 8.041062 -3.879049
v -12.540192 8.041062 -3.786768
v -12.540192 8.041062 -0.053180
v -12.540192 8.041062 0.037878
v -12.540192 8.041062 2.204157
v -12.540192 8.041062 2.329179
v -12.540192 8.041062 6.946494
v -12.540192 8.041062 7.081103
v -9.557624 8.041062 7.081103
v -9.557624 8.041062 6.946494
v -9.557624 8.041062 2.329179
v -9.557624 8.041062 2.204157
v -9.557624 8.041062 0.037878
v -9.557624 8.041062 -0.053180
v -9.557624 8.041062 -3.786768
v -9.557624 8.041062 -3.879049
v -9.557624 8.041062 -6.232171
v -9.557624 8.041062 -6.384971
v -9.557624 8.041062 -11.321585
v -9.557624 0.323666 -11.491578
v -12.540192 0.323666 -11.491578
v -12.540192 0.323666 -11.321585
v -12.540192 0.323666 -6.384971
v -12.540192 0.323666 -6.232171
v -12.540192 0.323666 -3.879050
v -12.540192 0.323666 -3.786768
v -12.540192 0.323666 -0.053180
v -12.540192 0.323666 0.037877
v -12.540192 0.323666 2.204157
v -12.540192 0.323666 2.329179
v -12.540192 0.323666 6.946493
v -12.540192 0.323666 7.081103
v -9.557624 0.323666 7.081103
v -9.557624 0.323666 6.946493
v -9.557624 0.323666 2.329179
v -9.557624 0.323666 2.204157
v -9.557624 0.323666 0.037877
v -9.557624 0.323666 -0.053180
v -9.557624 0.323666 -3.786768
v -9.557624 0.323666 -3.879050
v -9.557624 0.323666 -6.232171
v -9.557624 0.323666 -6.384971
v -9.557624 0.323666 -11.321585
v -10.824518 8.041062 6.946494
v -10.824518 8.041062 2.329179
v -10.824518 0.323666 6.946493
v -10.824518 0.323666 2.329179
v -10.824518 8.041062 2.204157
v -10.824518 8.041062 0.037878
v -10.824518 0.323666 2.204157
v -10.824518 0.323666 0.037877
v -10.824518 8.041062 -0.053180
v -10.824518 8.041062 -3.786768
v -10.824518 0.323666 -0.053180
v -10.824518 0.323666 -3.786768
v -10.824518 8.041062 -3.879049
v -10.824518 8.041062 -6.232171
v -10.824518 0.323666 -3.879050
v -10.824518 0.323666 -6.232171
v -10.824518 8.041062 -6.384971
v -10.824518 8.041062 -11.321585
v -10.824518 0.323666 -6.384971
v -10.824518 0.323666 -11.321585
vt 0.894451 0.288420
vt 0.894451 0.277981
vt 0.899875 0.277981
vt 0.899875 0.288420
vt 0.647271 0.900545
vt 0.737506 0.900545
vt 0.737506 0.905688
vt 0.647271 0.905688
vt 0.647271 0.905688
vt 0.737506 0.905688
vt 0.899875 0.277981
vt 0.894451 0.277981
vt 0.894451 0.288420
vt 0.899875 0.288420
vt 0.737506 0.900545
vt 0.732073 0.288420
vt 0.732073 0.277981
vt 0.647271 0.900545
vt 0.656997 0.277981
vt 0.647271 0.746568
vt 0.737506 0.746568
vt 0.656997 0.288420
vt 0.737506 0.675375
vt 0.656997 0.288420
vt 0.656997 0.277981
vt 0.647271 0.675375
vt 0.732073 0.277981
vt 0.647271 0.675375
vt 0.737506 0.675375
vt 0.732073 0.288420
vt 0.737506 0.746568
vt 0.462912 0.288420
vt 0.462912 0.277981
vt 0.647271 0.746568
vt 0.458923 0.277981
vt 0.647271 0.491332
vt 0.737506 0.491332
vt 0.458923 0.288420
vt 0.737506 0.487549
vt 0.458923 0.288420
vt 0.458923 0.277981
vt 0.647271 0.487549
vt 0.462912 0.277981
vt 0.647271 0.487549
vt 0.737506 0.487549
vt 0.462912 0.288420
vt 0.737506 0.491332
vt 0.534932 0.288420
vt 0.534932 0.277981
vt 0.647271 0.491332
vt 0.532027 0.277981
vt 0.647271 0.559626
vt 0.737506 0.559626
vt 0.532027 0.288420
vt 0.737506 0.556871
vt 0.532027 0.288420
vt 0.532027 0.277981
vt 0.647271 0.556871
vt 0.534932 0.277981
vt 0.647271 0.556871
vt 0.737506 0.556871
vt 0.534932 0.288420
vt 0.737506 0.559626
vt 0.654053 0.277981
vt 0.654053 0.288420
vt 0.647271 0.559626
vt 0.654053 0.288420
vt 0.737506 0.672584
vt 0.647271 0.672584
vt 0.654053 0.277981
vt 0.647271 0.672583
vt 0.311607 0.288420
vt 0.311607 0.277981
vt 0.737506 0.672583
vt 0.307313 0.277981
vt 0.647271 0.347855
vt 0.737506 0.347855
vt 0.307313 0.288420
vt 0.737506 0.343783
vt 0.307313 0.277981
vt 0.311607 0.277981
vt 0.647271 0.343783
vt 0.311607 0.288420
vt 0.647271 0.343783
vt 0.737506 0.343783
vt 0.307313 0.288420
vt 0.737506 0.347855
vt 0.736948 0.277981
vt 0.736948 0.288420
vt 0.647271 0.347855
vt 0.736948 0.288420
vt 0.737506 0.751191
vt 0.647271 0.751191
vt 0.736948 0.277981
vt 0.761504 0.937971
vt 0.899875 0.031757
vt 0.894451 0.031757
vt 0.948853 0.937971
vt 0.736948 0.031757
vt 0.732073 0.031757
vt 0.656997 0.031757
vt 0.654053 0.031757
vt 0.534932 0.031757
vt 0.532027 0.031757
vt 0.462912 0.031757
vt 0.458923 0.031757
vt 0.311607 0.031757
vt 0.307313 0.031757
vt 0.307313 0.031757
vt 0.311607 0.031757
vt 0.458923 0.031757
vt 0.462912 0.031757
vt 0.532027 0.031757
vt 0.534932 0.031757
vt 0.654053 0.031757
vt 0.656997 0.031757
vt 0.732073 0.031757
vt 0.736948 0.031757
vt 0.894451 0.031757
vt 0.899875 0.031757
vt 0.948853 0.958522
vt 0.899875 0.022365
vt 0.894451 0.022365
vt 0.761504 0.958522
vt 0.736948 0.022365
vt 0.732073 0.022365
vt 0.656997 0.022365
vt 0.654053 0.022365
vt 0.534932 0.022365
vt 0.532027 0.022365
vt 0.462912 0.022365
vt 0.458923 0.022365
vt 0.311607 0.022365
vt 0.307313 0.022365
vt 0.307313 0.022365
vt 0.311607 0.022365
vt 0.458923 0.022365
vt 0.462912 0.022365
vt 0.532027 0.022365
vt 0.534932 0.022365
vt 0.654053 0.022365
vt 0.656997 0.022365
vt 0.732073 0.022365
vt 0.736948 0.022365
vt 0.894451 0.022365
vt 0.899875 0.022365
vt 0.160738 0.221055
vt 0.160738 0.074218
vt 0.120448 0.074218
vt 0.120448 0.221055
vt 0.160738 0.074218
vt 0.160738 0.221055
vt 0.120448 0.221055
vt 0.120448 0.074218
vt 0.160738 0.293922
vt 0.160738 0.225031
vt 0.120448 0.225031
vt 0.120448 0.293922
vt 0.160738 0.225031
vt 0.160738 0.293922
vt 0.120448 0.293922
vt 0.120448 0.225031
vt 0.160738 0.415552
vt 0.160738 0.296818
vt 0.120448 0.296818
vt 0.120448 0.415552
vt 0.207948 0.943235
vt 0.067163 0.943235
vt 0.067163 0.707926
vt 0.207948 0.707926
vt 0.277812 0.943235
vt 0.211760 0.943235
vt 0.211760 0.707926
vt 0.277812 0.707926
vt 0.394428 0.943235
vt 0.280588 0.943235
vt 0.280588 0.707926
vt 0.394428 0.707926
vt 0.468990 0.943235
vt 0.397242 0.943235
vt 0.397242 0.707926
vt 0.468990 0.707926
vt 0.624170 0.943235
vt 0.473649 0.943235
vt 0.473649 0.707926
vt 0.624170 0.707926
vt 0.761504 0.958522
vt 0.948853 0.958522
vt 0.948853 0.937971
vt 0.761504 0.937971
vt 0.948853 0.453205
vt 0.761504 0.453205
vt 0.761504 0.453205
vt 0.948853 0.453205
vt 0.948853 0.434712
vt 0.761504 0.434712
vt 0.761504 0.434712
vt 0.948853 0.434712
vt 0.948853 0.937971
vt 0.948853 0.453205
vt 0.869274 0.453205
vt 0.869274 0.937971
vt 0.948853 0.453205
vt 0.948853 0.937971
vt 0.869274 0.937971
vt 0.869274 0.453205
vt 0.948853 0.937971
vt 0.948853 0.453205
vt 0.869274 0.453205
vt 0.869274 0.937971
vt 0.948853 0.453205
vt 0.948853 0.937971
vt 0.869274 0.937971
vt 0.869274 0.453205
vt 0.948853 0.937971
vt 0.948853 0.453205
vt 0.869274 0.453205
vt 0.869274 0.937971
vt 0.948853 0.453205
vt 0.948853 0.937971
vt 0.869274 0.937971
vt 0.869274 0.453205
vt 0.948853 0.937971
vt 0.948853 0.453205
vt 0.869274 0.453205
vt 0.869274 0.937971
vt 0.948853 0.453205
vt 0.948853 0.937971
vt 0.869274 0.937971
vt 0.869274 0.453205
vt 0.948853 0.937971
vt 0.948853 0.453205
vt 0.869274 0.453205
vt 0.869274 0.937971
vt 0.948853 0.453205
vt 0.948853 0.937971
vt 0.869274 0.937971
vt 0.869274 0.453205
vt 0.647271 0.751191
vt 0.737506 0.751191
vt 0.160738 0.296818
vt 0.160738 0.415552
vt 0.120448 0.415552
vt 0.120448 0.296818
vt 0.160738 0.493319
vt 0.160738 0.418486
vt 0.120448 0.418486
vt 0.120448 0.493319
vt 0.160738 0.418486
vt 0.160738 0.493319
vt 0.120448 0.493319
vt 0.120448 0.418486
vt 0.160738 0.655170
vt 0.160738 0.498178
vt 0.120448 0.498178
vt 0.120448 0.655170
vt 0.160738 0.498178
vt 0.160738 0.655170
vt 0.120448 0.655170
vt 0.120448 0.498178
vn 0.000000 0.000000 1.000000
vn 0.000000 0.000000 1.000000
vn 0.000000 0.000000 1.000000
vn 0.000000 0.000000 1.000000
vn 0.000000 1.000000 0.000000
vn 0.000000 1.000000 0.000000
vn 0.000000 1.000000 0.000000
vn 0.000000 1.000000 0.000000
vn 0.000000 0.000000 -1.000000
vn 0.000000 0.000000 -1.000000
vn 0.000000 0.000000 -1.000000
vn 0.000000 0.000000 -1.000000
vn 0.000000 -1.000000 0.000000
vn 0.000000 -1.000000 0.000000
vn 0.000000 -1.000000 0.000000
vn 0.000000 -1.000000 0.000000
vn 1.000000 0.000000 0.000000
vn 1.000000 0.000000 0.000000
vn 1.000000 0.000000 0.000000
vn 1.000000 0.000000 0.000000
vn -1.000000 0.000000 0.000000
vn -1.000000 0.000000 0.000000
vn -1.000000 0.000000 0.000000
vn -1.000000 0.000000 0.000000
vn 0.000000 -1.000000 0.000000
vn 0.000000 -1.000000 0.000000
vn 0.000000 -1.000000 0.000000
vn 0.000000 -1.000000 0.000000
vn -1.000000 0.000000 0.000000
vn -1.000000 -0.000000 0.000000
vn -1.000000 -0.000000 0.000000
vn -1.000000 0.000000 0.000000
vn 0.000000 1.000000 0.000000
vn 0.000000 1.000000 0.000000
vn 0.000000 1.000000 0.000000
vn 0.000000 1.000000 0.000000
vn 1.000000 0.000000 0.000000
vn 1.000000 -0.000000 0.000000
vn 1.000000 0.000000 0.000000
vn 1.000000 0.000000 0.000000
vn 0.000000 -1.000000 0.000000
vn 0.000000 -1.000000 0.000000
vn 0.000000 -1.000000 0.000000
vn 0.000000 -1.000000 0.000000
vn -1.000000 0.000000 0.000000
vn -1.000000 0.000000 0.000000
vn -1.000000 0.000000 0.000000
vn -1.000000 0.000000 0.000000
vn 0.000000 1.000000 0.000000
vn 0.000000 1.000000 0.000000
vn 0.000000 1.000000 0.000000
vn 0.000000 1.000000 0.000000
vn 1.000000 0.000000 0.000000
vn 1.000000 0.000000 0.000000
vn 1.000000 0.000000 0.000000
vn 1.000000 0.000000 0.000000
vn 0.000000 -1.000000 0.000000
vn 0.000000 -1.000000 0.000000
vn 0.000000 -1.000000 0.000000
vn 0.000000 -1.000000 0.000000
vn -1.000000 0.000000 0.000000
vn -1.000000 0.000000 0.000000
vn -1.000000 0.000000 0.000000
vn -1.000000 0.000000 0.000000
vn 0.000000 1.000000 0.000000
vn 0.000000 1.000000 0.000000
vn 0.000000 1.000000 0.000000
vn 0.000000 1.000000 0.000000
vn 1.000000 0.000000 0.000000
vn 1.000000 -0.000000 0.000000
vn 1.000000 -0.000000 0.000000
vn 1.000000 0.000000 0.000000
vn 0.000000 -1.000000 0.000000
vn 0.000000 -1.000000 0.000000
vn -1.000000 0.000000 0.000000
vn -1.000000 0.000000 0.000000
vn 0.000000 1.000000 0.000000
vn 0.000000 1.000000 0.000000
vn 1.000000 0.000000 0.000000
vn 1.000000 -0.000000 0.000000
vn 0.000000 -1.000000 0.000000
vn 0.000000 -1.000000 0.000000
vn 0.000000 -1.000000 0.000000
vn 0.000000 -1.000000 0.000000
vn -1.000000 0.000000 0.000000
vn -1.000000 0.000000 0.000000
vn -1.000000 0.000000 0.000000
vn -1.000000 0.000000 0.000000
vn 0.000000 1.000000 0.000000
vn 0.000000 1.000000 0.000000
vn 0.000000 1.000000 0.000000
vn 0.000000 1.000000 0.000000
vn 1.000000 0.000000 0.000000
vn 1.000000 0.000000 0.000000
vn 1.000000 0.000000 0.000000
vn 1.000000 0.000000 0.000000
vn 0.000000 -1.000000 0.000000
vn 0.000000 -1.000000 0.000000
vn -1.000000 0.000000 0.000000
vn -1.000000 0.000000 0.000000
vn 0.000000 1.000000 0.000000
vn 0.000000 1.000000 0.000000
vn 1.000000 0.000000 0.000000
vn 1.000000 0.000000 0.000000
vn 0.000000 0.000000 -1.000000
vn 0.000000 0.000000 -1.000000
vn -1.000000 0.000000 0.000000
vn -1.000000 0.000000 0.000000
vn -1.000000 0.000000 0.000000
vn -1.000000 -0.000000 0.000000
vn -1.000000 -0.000000 0.000000
vn -1.000000 0.000000 0.000000
vn -1.000000 0.000000 0.000000
vn -1.000000 0.000000 0.000000
vn -1.000000 0.000000 0.000000
vn -1.000000 0.000000 0.000000
vn -1.000000 0.000000 0.000000
vn -1.000000 0.000000 0.000000
vn 0.000000 0.000000 1.000000
vn 0.000000 0.000000 1.000000
vn 1.000000 0.000000 0.000000
vn 1.000000 0.000000 0.000000
vn 1.000000 0.000000 0.000000
vn 1.000000 0.000000 0.000000
vn 1.000000 0.000000 0.000000
vn 1.000000 0.000000 0.000000
vn 1.000000 0.000000 0.000000
vn 1.000000 0.000000 0.000000
vn 1.000000 -0.000000 0.000000
vn 1.000000 -0.000000 0.000000
vn 1.000000 -0.000000 0.000000
vn 1.000000 -0.000000 0.000000
vn 1.000000 -0.000000 0.000000
vn 1.000000 -0.000000 0.000000
vn 1.000000 0.000000 0.000000
vn 1.000000 0.000000 0.000000
vn 1.000000 0.000000 0.000000
vn 1.000000 0.000000 0.000000
vn 1.000000 -0.000000 0.000000
vn 1.000000 -0.000000 0.000000
vn 1.000000 -0.000000 0.000000
vn 1.000000 -0.000000 0.000000
vn 1.000000 -0.000000 0.000000
vn 1.000000 -0.000000 0.000000
vn 1.000000 0.000000 0.000000
vn 1.000000 0.000000 0.000000
vn 1.000000 0.000000 0.000000
vn 1.000000 0.000000 0.000000
vn 1.000000 0.000000 0.000000
vn 1.000000 0.000000 0.000000
vn 1.000000 0.000000 0.000000
vn 1.000000 0.000000 0.000000
vn 0.000000 0.000000 -1.000000
vn 0.000000 0.000000 -1.000000
vn -1.000000 0.000000 0.000000
vn -1.000000 0.000000 0.000000
vn -1.000000 0.000000 0.000000
vn -1.000000 0.000000 0.000000
vn -1.000000 0.000000 0.000000
vn -1.000000 0.000000 0.000000
vn -1.000000 0.000000 0.000000
vn -1.000000 0.000000 0.000000
vn -1.000000 0.000000 0.000000
vn -1.000000 0.000000 0.000000
vn -1.000000 0.000000 0.000000
vn -1.000000 0.000000 0.000000
vn 0.000000 0.000000 1.000000
vn 0.000000 0.000000 1.000000
vn 1.000000 0.000000 0.000000
vn 1.000000 0.000000 0.000000
vn 1.000000 0.000000 0.000000
vn 1.000000 0.000000 0.000000
vn 1.000000 0.000000 0.000000
vn 1.000000 -0.000000 0.000000
vn 1.000000 -0.000000 0.000000
vn 1.000000 0.000000 0.000000
vn 1.000000 0.000000 0.000000
vn 1.000000 0.000000 0.000000
vn 1.000000 0.000000 0.000000
vn 1.000000 0.000000 0.000000
vn 0.000000 -1.000000 0.000000
vn 0.000000 -1.000000 0.000000
vn 0.000000 -1.000000 0.000000
vn 0.000000 -1.000000 0.000000
vn 0.000000 0.000000 -1.000000
vn 0.000000 0.000000 -1.000000
vn 0.000000 0.000000 -1.000000
vn 0.000000 0.000000 -1.000000
vn 0.000000 1.000000 0.000000
vn 0.000000 1.000000 0.000000
vn 0.000000 1.000000 0.000000
vn 0.000000 1.000000 0.000000
vn 0.000000 0.000000 1.000000
vn 0.000000 0.000000 1.000000
vn 0.000000 0.000000 1.000000
vn 0.000000 0.000000 1.000000
vn 0.000000 -1.000000 0.000000
vn 0.000000 -1.000000 0.000000
vn 0.000000 -1.000000 0.000000
vn 0.000000 -1.000000 0.000000
vn 0.000000 0.000000 -1.000000
vn 0.000000 0.000000 -1.000000
vn 0.000000 0.000000 -1.000000
vn 0.000000 0.000000 -1.000000
vn 0.000000 1.000000 0.000000
vn 0.000000 1.000000 0.000000
vn 0.000000 1.000000 0.000000
vn 0.000000 1.000000 0.000000
vn 0.000000 -0.000000 1.000000
vn 0.000000 -0.000000 1.000000
vn 0.000000 -0.000000 1.000000
vn 0.000000 -0.000000 1.000000
vn 0.000000 -1.000000 0.000000
vn 0.000000 -1.000000 0.000000
vn 0.000000 -1.000000 0.000000
vn 0.000000 -1.000000 0.000000
vn 0.000000 0.000000 -1.000000
vn 0.000000 0.000000 -1.000000
vn 0.000000 0.000000 -1.000000
vn 0.000000 0.000000 -1.000000
vn 0.000000 1.000000 0.000000
vn 0.000000 1.000000 0.000000
vn 0.000000 1.000000 0.000000
vn 0.000000 1.000000 0.000000
vn 0.000000 0.000000 1.000000
vn 0.000000 0.000000 1.000000
vn 0.000000 0.000000 1.000000
vn 0.000000 0.000000 1.000000
vn 0.000000 -1.000000 0.000000
vn 0.000000 -1.000000 0.000000
vn 0.000000 -1.000000 0.000000
vn 0.000000 -1.000000 0.000000
vn 0.000000 0.000000 -1.000000
vn 0.000000 0.000000 -1.000000
vn 0.000000 0.000000 -1.000000
vn 0.000000 0.000000 -1.000000
vn 0.000000 1.000000 0.000000
vn 0.000000 1.000000 0.000000
vn 0.000000 1.000000 0.000000
vn 0.000000 1.000000 0.000000
vn 0.000000 0.000000 1.000000
vn 0.000000 0.000000 1.000000
vn 0.000000 0.000000 1.000000
vn 0.000000 0.000000 1.000000
vn 0.000000 -1.000000 0.000000
vn 0.000000 -1.000000 0.000000
vn 0.000000 -1.000000 0.000000
vn 0.000000 -1.000000 0.000000
vn 0.000000 0.000000 -1.000000
vn 0.000000 0.000000 -1.000000
vn 0.000000 0.000000 -1.000000
vn 0.000000 0.000000 -1.000000
vn 0.000000 1.000000 0.000000
vn 0.000000 1.000000 0.000000
vn 0.000000 1.000000 0.000000
vn 0.000000 1.000000 0.000000
vn 0.000000 0.000000 1.000000
vn 0.000000 0.000000 1.000000
vn 0.000000 0.000000 1.000000
vn 0.000000 0.000000 1.000000
s 1
g pCube2
usemtl initialShadingGroup
f 61/95/1 62/98/2 4/121/3 3/124/4
s 2
f 31/5/5 32/6/6 6/7/7 5/8/8
s 3
f 5/187/9 6/188/10 49/189/11 50/190/12
s 4
f 7/9/13 8/10/14 29/15/15 30/18/16
s 5
f 32/1/17 72/2/18 49/3/19 6/4/20
s 6
f 50/11/21 51/12/22 31/13/23 5/14/24
s 4
f 10/20/25 9/21/26 21/23/27 22/26/28
s 6
f 11/16/29 53/17/30 54/19/31 23/22/32
s 2
f 23/28/33 24/29/34 12/31/35 11/34/36
s 5
f 24/24/37 69/25/38 70/27/39 12/30/40
s 4
f 14/36/41 13/37/42 37/39/43 38/42/44
s 6
f 15/32/45 58/33/46 59/35/47 39/38/48
s 2
f 39/44/49 40/45/50 16/47/51 15/50/52
s 5
f 40/40/53 64/41/54 65/43/55 16/46/56
s 4
f 18/52/57 17/53/58 41/55/59 42/58/60
s 6
f 19/48/61 56/49/62 57/51/63 43/54/64
s 2
f 43/60/65 44/61/66 20/63/67 19/66/68
s 5
f 44/56/69 66/57/70 67/59/71 20/62/72
s 4
f 22/26/28 21/23/27 45/68/73 46/69/74
s 6
f 23/22/32 54/19/31 55/64/75 47/65/76
s 2
f 47/71/77 48/74/78 24/29/34 23/28/33
s 5
f 48/67/79 68/70/80 69/25/38 24/24/37
s 4
f 26/76/81 25/77/82 2/79/83 1/82/84
s 6
f 27/72/85 60/73/86 61/75/87 3/78/88
s 2
f 3/84/89 4/85/90 28/87/91 27/90/92
s 5
f 62/80/93 63/81/94 28/83/95 4/86/96
s 4
f 30/18/16 29/15/15 33/92/97 34/93/98
s 6
f 31/13/23 51/12/22 52/88/99 35/89/100
s 2
f 35/239/101 36/240/102 32/6/6 31/5/5
s 5
f 36/91/103 71/94/104 72/2/18 32/1/17
s 4
f 34/93/98 33/92/97 9/21/26 10/20/25
s 6
f 35/89/100 52/88/99 53/17/30 11/16/29
s 2
f 11/34/36 12/31/35 36/240/102 35/239/101
s 5
f 12/30/40 70/27/39 71/94/104 36/91/103
s 4
f 38/42/44 37/39/43 25/77/82 26/76/81
s 6
f 39/38/48 59/35/47 60/73/86 27/72/85
s 2
f 27/90/92 28/87/91 40/45/50 39/44/49
s 5
f 28/83/95 63/81/94 64/41/54 40/40/53
s 4
f 42/58/60 41/55/59 13/37/42 14/36/41
s 6
f 43/54/64 57/51/63 58/33/46 15/32/45
s 2
f 15/50/52 16/47/51 44/61/66 43/60/65
s 5
f 16/46/56 65/43/55 66/57/70 44/56/69
s 4
f 46/69/74 45/68/73 17/53/58 18/52/57
s 6
f 47/65/76 55/64/75 56/49/62 19/48/61
s 2
f 19/66/68 20/63/67 48/74/78 47/71/77
s 5
f 20/62/72 67/59/71 68/70/80 48/67/79
s 3
f 50/190/12 49/189/11 73/191/105 74/192/106
s 6
f 74/96/107 75/97/108 51/12/22 50/11/21
f 52/88/99 51/12/22 75/97/108 76/99/109
f 53/17/30 52/88/99 76/99/109 77/100/110
f 54/19/31 53/17/30 77/100/110 78/101/111
f 55/64/75 54/19/31 78/101/111 79/102/112
f 56/49/62 55/64/75 79/102/112 80/103/113
f 57/51/63 56/49/62 80/103/113 81/104/114
f 58/33/46 57/51/63 81/104/114 82/105/115
f 59/35/47 58/33/46 82/105/115 83/106/116
f 60/73/86 59/35/47 83/106/116 84/107/117
f 61/75/87 60/73/86 84/107/117 85/108/118
s 1
f 85/193/119 86/194/120 62/98/2 61/95/1
s 5
f 86/109/121 87/110/122 63/81/94 62/80/93
s off
f 98/167/123 97/168/124 99/169/125 100/170/126
s 5
f 65/43/55 64/41/54 88/111/127 89/112/128
s off
f 102/171/129 101/172/130 103/173/131 104/174/132
s 5
f 67/59/71 66/57/70 90/113/133 91/114/134
s off
f 106/175/135 105/176/136 107/177/137 108/178/138
s 5
f 69/25/38 68/70/80 92/115/139 93/116/140
s off
f 110/179/141 109/180/142 111/181/143 112/182/144
s 5
f 71/94/104 70/27/39 94/117/145 95/118/146
s off
f 114/183/147 113/184/148 115/185/149 116/186/150
s 5
f 49/3/19 72/2/18 96/119/151 73/120/152
s 3
f 74/192/106 73/191/105 8/195/153 7/196/154
s 6
f 7/122/155 30/123/156 75/97/108 74/96/107
f 76/99/109 75/97/108 30/123/156 34/125/157
f 77/100/110 76/99/109 34/125/157 10/126/158
f 78/101/111 77/100/110 10/126/158 22/127/159
f 79/102/112 78/101/111 22/127/159 46/128/160
f 80/103/113 79/102/112 46/128/160 18/129/161
f 81/104/114 80/103/113 18/129/161 42/130/162
f 82/105/115 81/104/114 42/130/162 14/131/163
f 83/106/116 82/105/115 14/131/163 38/132/164
f 84/107/117 83/106/116 38/132/164 26/133/165
f 85/108/118 84/107/117 26/133/165 1/134/166
s 1
f 1/197/167 2/198/168 86/194/120 85/193/119
s 5
f 2/135/169 25/136/170 87/110/122 86/109/121
f 88/111/127 87/110/122 25/136/170 37/137/171
f 89/112/128 88/111/127 37/137/171 13/138/172
f 90/113/133 89/112/128 13/138/172 41/139/173
f 91/114/134 90/113/133 41/139/173 17/140/174
f 92/115/139 91/114/134 17/140/174 45/141/175
f 93/116/140 92/115/139 45/141/175 21/142/176
f 94/117/145 93/116/140 21/142/176 9/143/177
f 95/118/146 94/117/145 9/143/177 33/144/178
f 96/119/151 95/118/146 33/144/178 29/145/179
f 73/120/152 96/119/151 29/145/179 8/146/180
s off
f 64/147/181 63/148/182 97/149/183 98/150/184
f 63/199/185 87/200/186 99/201/187 97/202/188
f 87/151/189 88/152/190 100/153/191 99/154/192
f 88/203/193 64/204/194 98/205/195 100/206/196
f 66/155/197 65/156/198 101/157/199 102/158/200
f 65/207/201 89/208/202 103/209/203 101/210/204
f 89/159/205 90/160/206 104/161/207 103/162/208
f 90/211/209 66/212/210 102/213/211 104/214/212
f 68/163/213 67/164/214 105/165/215 106/166/216
f 67/215/217 91/216/218 107/217/219 105/218/220
f 91/241/221 92/242/222 108/243/223 107/244/224
f 92/219/225 68/220/226 106/221/227 108/222/228
f 70/245/229 69/246/230 109/247/231 110/248/232
f 69/223/233 93/224/234 111/225/235 109/226/236
f 93/249/237 94/250/238 112/251/239 111/252/240
f 94/227/241 70/228/242 110/229/243 112/230/244
f 72/253/245 71/254/246 113/255/247 114/256/248
f 71/231/249 95/232/250 115/233/251 113/234/252
f 95/257/253 96/258/254 116/259/255 115/260/256
f 96/235/257 72/236/258 114/237/259 116/238/260
